<svg xmlns="http://www.w3.org/2000/svg" width="256" height="256" viewBox="0 0 100 100"><rect width="100" height="100" rx="20" fill="#28433b"></rect><path d="M6.78 73.62Q4.04 73.62 2.56 72.14Q1.09 70.67 1.09 67.92L1.09 67.92L1.09 32.08Q1.09 29.33 2.56 27.86Q4.04 26.38 6.78 26.38L6.78 26.38L20.32 26.38Q28.16 26.38 33.82 29.23Q39.48 32.08 42.50 37.37Q45.51 42.66 45.51 49.97L45.51 49.97Q45.51 57.34 42.53 62.66Q39.55 67.99 33.89 70.80Q28.22 73.62 20.32 73.62L20.32 73.62L6.78 73.62ZM19.45 63.70Q26.35 63.70 29.80 60.32Q33.25 56.93 33.25 49.97L33.25 49.97Q33.25 43.00 29.80 39.65Q26.35 36.30 19.45 36.30L19.45 36.30L13.42 36.30L13.42 63.70L19.45 63.70ZM75.33 74.22Q68.09 74.22 62.76 71.24Q57.44 68.26 54.56 62.80Q51.68 57.34 51.68 49.97L51.68 49.97Q51.68 42.60 54.56 37.14Q57.44 31.68 62.76 28.73Q68.09 25.78 75.33 25.78L75.33 25.78Q82.56 25.78 87.89 28.73Q93.22 31.68 96.06 37.14Q98.91 42.60 98.91 49.97L98.91 49.97Q98.91 57.34 96.03 62.80Q93.15 68.26 87.82 71.24Q82.50 74.22 75.33 74.22L75.33 74.22ZM75.33 64.77Q80.69 64.77 83.70 60.99Q86.72 57.20 86.72 49.97L86.72 49.97Q86.72 42.73 83.67 38.98Q80.62 35.23 75.33 35.23L75.33 35.23Q69.97 35.23 66.95 38.95Q63.94 42.66 63.94 49.97L63.94 49.97Q63.94 57.27 66.95 61.02Q69.97 64.77 75.33 64.77L75.33 64.77Z" fill="#fff"></path></svg>